# xmcd
#
# Track frame offsets: 
#        150
#        15081
#        33913
#        57300
#        77040
#        97402
#        121243
#        144477
#        159314
#
# Disc length: 2457 seconds
#
# Revision: 0
# Processed by: cddbd v1.5.2PL0 Copyright (c) Steve Scherf et al.
# Submitted via: ExactAudioCopy v1.2
#
DISCID=68099709
DTITLE=Greg Coulson - What's New?
DYEAR=2018
DGENRE=Blues
TTITLE0=10 - 10
TTITLE1=Girls
TTITLE2=Stitch Me Up
TTITLE3=Love Nest
TTITLE4=What's New?
TTITLE5=Someone to Be There
TTITLE6=End of the Line
TTITLE7=Ran out and Ready
TTITLE8=Sick Note
EXTD=
EXTT0=
EXTT1=
EXTT2=
EXTT3=
EXTT4=
EXTT5=
EXTT6=
EXTT7=
EXTT8=
PLAYORDER=
